<svg xmlns="http://www.w3.org/2000/svg" width="75" height="75" viewBox="0 0 75 75"><g fill="#EB6608"><path d="M53.865 61.533c-.353 0-.613.092-.783.273-.17.184-.279.432-.33.745h2.197c-.025-.288-.121-.53-.287-.726s-.433-.292-.797-.292zM20.716 63.5c-.138.01-.271.02-.396.033-.277.031-.471.099-.585.203-.113.104-.169.212-.169.325 0 .2.069.349.208.442s.324.143.556.143c.17 0 .328-.02.472-.057.145-.038.271-.094.381-.166s.196-.16.259-.264.095-.219.095-.345v-.348c-.139 0-.28.003-.425.009-.125.007-.258.016-.396.025zM42.814 63.5c-.139.01-.27.02-.396.033-.276.031-.471.099-.584.203-.113.104-.17.212-.17.325 0 .2.069.349.208.442.138.094.323.143.556.143.17 0 .328-.02.472-.057.145-.038.272-.094.382-.166.11-.072.197-.16.26-.264.063-.104.095-.219.095-.345v-.348c-.139 0-.28.003-.425.009-.126.007-.259.016-.398.025zM44.477 23.658c1.99-2.53 2.869-4.078 3.301-5.787.434-1.707-.279-2.376-.658-2.561-.315-.153-1.297-.297-3.209 1.438-1.917 1.739-4.561 5.373-6.482 9.378-.794 1.656-1.506 3.234-2.141 4.889 3.628-1.823 6.92-4.473 9.189-7.357z"/><path d="M73.293 0H1.706C.559 0 0 .559 0 1.706v71.587C0 74.441.559 75 1.706 75h71.587C74.441 75 75 74.441 75 73.294V1.706C75 .559 74.441 0 73.293 0zM15.324 65.627h-1.981l-1.98-5.111h1.98l.991 3.365.972-3.365h1.979l-1.961 5.111zm7.938 0h-1.433l-.094-.481c-.478.459-1.15.688-2.018.688-.648 0-1.146-.132-1.495-.396-.349-.264-.523-.662-.523-1.197 0-.528.159-.912.476-1.15s.788-.381 1.41-.425c.308-.019.583-.032.825-.042.242-.01.444-.018.607-.023.196-.006.362-.01.5-.01v-.367c0-.083-.016-.166-.047-.251-.032-.084-.083-.162-.156-.229-.072-.07-.167-.125-.283-.166s-.259-.063-.429-.063c-.151 0-.281.018-.387.049-.107.032-.195.07-.264.117-.07.048-.125.102-.165.166-.042.063-.074.121-.099.178H17.96c.031-.308.123-.57.274-.787.15-.217.343-.394.58-.533.236-.137.505-.238.811-.301.305-.063.627-.095.967-.095.402 0 .769.046 1.099.142.33.094.612.227.844.396.232.169.411.372.538.607.125.236.188.495.188.778v3.395zm-.02-11.715c-.57-.248-1.462-.789-1.406-2.971.042-1.665.659-5.453 1.264-7.658.329-1.199.628-2.408.969-3.678-10.592 2.904-13.859-2.93-12.163-8.444 1.547-5.032 6.612-8.199 8.99-8.897.918-.27 1.463-.121 1.637.243.225.474-.034.799-.581 1.294-1.234 1.116-2.988 2.664-3.714 5.351-.568 2.101-.092 4.428 2.256 5.338 1.333.517 3.049.444 5.186-.058.521-1.42 1.151-2.947 1.958-4.631 4.409-9.206 8.646-14.49 12.966-18.022 4.488-3.667 9.553-4.711 11.389-2.96 3.197 3.046.718 11.173-3.998 16.855-3.803 4.582-8.48 8.128-14.425 10.755-.331 1.209-.575 2.22-.723 3.202-.294 1.926.588 1.928 1.296 1.426 3.328-2.354 8.947-6.375 12.512-6.743 6.375-.657 7.078 3.805 7.953 8.862.449 2.6 1.11 4.279 1.58 5.118.473.845 1.729 1.105 3.17.364.396-.203 1.232-.691 1.707-.154.338.38.167.89-.206 1.545-.731 1.286-2.97 3.703-6.075 4.4-2.436.547-4.707.119-5.861-1.221-3.121-3.622-1.65-10.264-5.142-11.328-2.27-.691-4.927 1.015-8.881 4.32-2.747 2.297-4.928 4.213-6.742 5.685-2.321 1.88-3.83 2.48-4.916 2.007zm6.756 11.715h-1.736v-3.064c0-.252-.064-.455-.193-.609-.129-.154-.335-.231-.617-.231-.152 0-.29.03-.415.09-.126.06-.231.134-.317.222-.083.088-.15.18-.197.274-.048.093-.071.179-.071.255v3.064h-1.735v-5.111h1.632v.716c.163-.265.394-.481.692-.655.299-.173.668-.258 1.108-.258.27 0 .52.033.75.103s.425.178.585.325c.16.148.286.336.377.566.091.229.137.504.137.824v3.489zm8.635 0H36.69v-2.66h-2.858v2.66H31.89v-6.734h1.942v2.575h2.858v-2.575h1.942v6.734zm6.728 0h-1.434l-.095-.481c-.478.459-1.151.688-2.019.688-.646 0-1.146-.132-1.494-.396-.349-.264-.522-.662-.522-1.197 0-.528.158-.912.476-1.15s.787-.381 1.409-.425c.308-.019.583-.032.826-.042.241-.01.444-.018.607-.023.195-.006.362-.01.501-.01v-.367c0-.083-.016-.166-.048-.251-.032-.084-.083-.162-.155-.229-.072-.07-.166-.125-.283-.166-.116-.041-.26-.063-.43-.063-.15 0-.279.018-.386.049-.107.032-.195.07-.265.117-.068.048-.124.102-.166.166-.039.063-.073.121-.098.178h-1.727c.031-.308.124-.57.274-.787.151-.217.344-.394.58-.533.235-.137.505-.238.81-.301.307-.063.629-.095.968-.095.402 0 .769.046 1.099.142.33.094.611.227.844.396.233.169.412.372.537.607.126.236.189.495.189.778v3.395zm5.012-3.492c-.018-.006-.033-.012-.053-.018-.063-.012-.136-.023-.217-.037-.082-.012-.176-.018-.283-.018-.276 0-.502.043-.674.131-.174.088-.309.191-.406.307-.098.116-.164.236-.197.357-.035.124-.051.223-.051.299v2.471h-1.746v-5.111h1.717v.905c.125-.372.313-.638.564-.797.252-.161.576-.241.973-.241.094 0 .194.005.301.014.055.006.1.014.147.021l-.075 1.717zm2.719 2.191c.194.188.487.281.876.281.239 0 .437-.035.595-.109.156-.07.265-.17.32-.295h1.612c-.194.527-.503.932-.923 1.211-.422.281-.99.42-1.707.42-.466 0-.881-.064-1.244-.193-.365-.129-.672-.314-.92-.557s-.439-.532-.571-.872-.198-.72-.198-1.142c0-.439.068-.831.207-1.174s.336-.631.59-.867c.255-.236.563-.416.924-.538s.766-.184 1.213-.184c.408 0 .783.065 1.127.198.342.133.638.33.886.594s.442.596.579.994c.139.401.209.867.209 1.401h-3.914c.03.365.143.643.339.832zm9.775 1.301h-1.734v-3.065c0-.251-.065-.454-.193-.608-.129-.154-.336-.23-.619-.23-.15 0-.289.029-.414.089s-.231.134-.316.222c-.084.088-.15.18-.198.273-.047.094-.069.18-.069.255v3.065h-1.736v-5.111h1.631v.716c.164-.264.396-.481.693-.655.299-.173.668-.259 1.108-.259.271 0 .521.034.75.104.229.069.425.177.585.324.16.148.285.337.377.566.092.229.137.504.137.824v3.49z"/></g></svg>